<svg height="512" viewBox="0 0 64 64" width="512" xmlns="http://www.w3.org/2000/svg"><g id="_x31_9_User_Account"><g><path d="m52 38c-.717 0-1.417.085-2.106.208 1.376-3.215 2.106-6.7 2.106-10.208 0-14.337-11.663-26-26-26s-26 11.663-26 26c0 12.684 9.352 23.614 21.823 25.643l.681 1.021c.558.837 1.491 1.336 2.496 1.336h16.62c2.149 3.717 6.071 6 10.38 6 6.617 0 12-5.383 12-12s-5.383-12-12-12zm-50-10c0-13.233 10.767-24 24-24s24 10.767 24 24c0 3.798-.923 7.57-2.655 10.94-2.37.999-4.39 2.752-5.725 5.06h-16.62c-1.005 0-1.938.499-2.496 1.336l-2 3c-.598.896-.664 2.021-.202 2.971-10.579-2.594-18.302-12.231-18.302-23.307zm50 32c-3.761 0-7.17-2.091-8.896-5.456-.171-.334-.515-.544-.89-.544h-2.214v-2c0-.553-.447-1-1-1s-1 .447-1 1v2h-3v-2c0-.553-.447-1-1-1s-1 .447-1 1v2h-3v-2c0-.553-.447-1-1-1s-1 .447-1 1v2h-3c-.335 0-.646-.166-.832-.445l-2-3c-.225-.337-.225-.772 0-1.109l2-3c.186-.28.497-.446.832-.446h17.214c.375 0 .719-.21.89-.544 1.726-3.365 5.135-5.456 8.896-5.456 5.514 0 10 4.486 10 10s-4.486 10-10 10z"/><path d="m55 46c-2.206 0-4 1.794-4 4s1.794 4 4 4 4-1.794 4-4-1.794-4-4-4zm0 6c-1.103 0-2-.897-2-2s.897-2 2-2 2 .897 2 2-.897 2-2 2z"/><path d="m40 37v-2c0-4.759-3.715-8.656-8.396-8.97 2.066-1.65 3.396-4.185 3.396-7.03 0-4.963-4.037-9-9-9s-9 4.037-9 9c0 2.845 1.33 5.38 3.396 7.03-4.681.314-8.396 4.211-8.396 8.97v2c0 2.757 2.243 5 5 5h18c2.757 0 5-2.243 5-5zm-21-18c0-3.859 3.141-7 7-7s7 3.141 7 7-3.141 7-7 7-7-3.141-7-7zm-5 18v-2c0-3.859 3.141-7 7-7h10c3.859 0 7 3.141 7 7v2c0 1.654-1.346 3-3 3h-18c-1.654 0-3-1.346-3-3z"/></g></g></svg>