<svg version="1.0" xmlns="http://www.w3.org/2000/svg"
    width="512.000000pt" height="512.000000pt" viewBox="0 0 512.000000 512.000000"
    preserveAspectRatio="xMidYMid meet">

    <g transform="translate(0.000000,512.000000) scale(0.100000,-0.100000)"
        fill="#000000" stroke="none">
        <path
            d="M2150 4554 c-489 -26 -724 -45 -857 -70 -329 -59 -597 -326 -657
-654 -17 -94 -38 -315 -58 -600 -17 -245 -17 -1096 0 -1340 41 -587 63 -706
164 -878 43 -73 197 -227 270 -270 141 -83 249 -111 528 -136 364 -33 548 -40
1015 -41 492 0 704 9 1065 45 228 23 294 38 397 85 244 113 420 338 467 598
17 91 38 315 58 597 16 244 16 1096 0 1340 -20 282 -41 506 -58 597 -47 260
-223 485 -467 598 -128 59 -255 79 -702 111 -194 14 -1011 26 -1165 18z m554
-846 c4 -29 20 -251 37 -493 17 -242 32 -441 32 -442 1 0 200 -15 442 -32 242
-17 464 -33 493 -37 l52 -5 0 -139 0 -139 -52 -5 c-29 -4 -251 -20 -493 -37
-242 -17 -441 -32 -442 -32 0 -1 -15 -200 -32 -442 -17 -242 -33 -464 -37
-492 l-5 -53 -139 0 -139 0 -5 52 c-4 29 -20 251 -37 493 -17 242 -32 441 -33
442 0 1 -199 15 -441 32 -242 17 -464 34 -492 37 l-53 5 0 139 0 139 53 5 c28
3 250 20 492 37 242 17 441 31 441 32 1 1 16 200 33 442 17 242 33 464 37 493
l5 52 139 0 139 0 5 -52z" />
    </g>
</svg>