<svg height="512" viewBox="0 0 32 32" width="512" xmlns="http://www.w3.org/2000/svg"><g id="_x31_4"><path d="m29.2939453 18.0439453-8.2939453-2.5520019v-3.4919434h5c.5527344 0 1-.4472656 1-1v-3h1c.0068359 0 .0146484.0009766.0195313 0 .5527344 0 1-.4472656 1-1 0-.2285156-.0761719-.4394531-.2050781-.6074219l-1.9199219-3.8398438c-.3398438-.6777344-1.4492188-.6777344-1.7890625 0l-2 4c-.1552734.3095703-.1386719.6777344.0439453.9726563s.5039062.4746094.8505859.4746094h1v2h-5c-.5527344 0-1 .4472656-1 1v3.8765869l-2-.6154175v-6.2611694h1c.5527344 0 1-.4472656 1-1v-4c0-.5527344-.4472656-1-1-1h-4c-.5527344 0-1 .4472656-1 1v4c0 .5527344.4472656 1 1 1h1v6.2611694l-2 .6154175v-3.8765869c0-.5527344-.4472656-1-1-1h-5v-2.1842651c1.161499-.4141236 2-1.513794 2-2.8157349 0-1.6542969-1.3457031-3-3-3s-3 1.3457031-3 3c0 1.3019409.838501 2.4015503 2 2.8156738v3.1843262c0 .5527344.4472656 1 1 1h5v3.4919434l-8.2939453 2.552002c-.4199219.1289062-.7060547.5166015-.7060547.9560546s.2861328.8271484.7060547.9560547l5.1651611 1.5892944-.8516846 4.2583618c-.0966797.4804688.1699219.9609375.6289063 1.1328125l8 3c.1132813.0419922.2324219.0634766.3515625.0634766s.2382813-.0214844.3515625-.0634766l8-3c.4589844-.171875.7255859-.6523438.6289063-1.1328125l-.8516846-4.2583618 3.8712158-1.1911621v7.645813c0 .5527344.4472656 1 1 1s1-.4472656 1-1v-9c0-.4394531-.2861328-.8271484-.7060547-.9560547zm-3.2939453-12.8076172.3818359.7636719h-.7636719zm-11-1.2363281h2v2h-2zm-9 0c.5517578 0 1 .4482422 1 1s-.4482422 1-1 1-1-.4482422-1-1 .4482422-1 1-1zm6.8995361 13h.1004639v-.0308838l3-.9232178 3 .9232178v.0308838h.1004639l3.2495728 1h-6.3500367c-.5527344 0-1 .4472656-1 1s.4472656 1 1 1h6.3500366l-6.3500366 1.9541016-9.5996094-2.9541016zm9.953003 8.3623047-6.8525391 2.5693359-6.8525391-2.5693359.6450195-3.2258301 5.9135742 1.8195801c.0957032.0292969.194336.0439453.2939454.0439453s.1982422-.0146484.2939453-.0439453l5.9135742-1.8195801z"/></g></svg>