<svg height="512" viewBox="0 0 512 512" width="512" xmlns="http://www.w3.org/2000/svg"><g id="_OUTLINE" data-name=" OUTLINE"><path d="m440.49609 286.84613a31.97514 31.97514 0 0 0 18.07959-48.65013 31.97339 31.97339 0 0 0 16-48 31.99353 31.99353 0 0 0 -6.999-61.991 31.97758 31.97758 0 0 0 -27.57668-48.205h-16a31.89432 31.89432 0 0 0 -22.50928 9.28076 143.95236 143.95236 0 0 0 -30.15381-15.80591 31.98537 31.98537 0 0 0 -19.33691-57.47485h-98.74512a39.74371 39.74371 0 0 0 -28.28515 11.71582l-65.94043 65.94092a7.94524 7.94524 0 0 1 -5.65625 2.34326h-137.37305v16h16v128h-16v16h137.98828a7.99968 7.99968 0 0 1 5.26856 1.97949l57.626 50.42273a143.88818 143.88818 0 0 0 223.61328-21.55609zm-8.49609-14.84613h-48a16 16 0 0 1 0-32h48a16 16 0 0 1 0 32zm-8-176h16a16 16 0 0 1 0 32h-16a16 16 0 0 1 0-32zm-8 48h48a16 16 0 0 1 0 32h-48a16 16 0 0 1 0-32zm32 48a16 16 0 0 1 0 32h-48a16 16 0 0 1 0-32zm-96-160a16 16 0 0 1 0 32zm-48 0h32v32h-16a144.87262 144.87262 0 0 0 -16 .89368zm-168 208h-88v-128h40v48h16v-48h32zm33.792 5.938a23.99354 23.99354 0 0 0 -15.80372-5.938h-1.98828v-128h1.37305a23.84385 23.84385 0 0 0 16.9707-7.02979l65.93945-65.94042a23.84779 23.84779 0 0 1 16.97168-7.02979h34.74512v35.58893c-64.05225 14.59051-112 72.00439-112 140.41107a143.26925 143.26925 0 0 0 9.64722 51.81146zm58.0249 50.77215a127.96749 127.96749 0 0 1 165.46581-193.65915 31.8992 31.8992 0 0 0 6.23926 29.52935 31.96236 31.96236 0 0 0 -10.09765 45.22365 31.97339 31.97339 0 0 0 -16 48 31.99657 31.99657 0 0 0 10.57568 62.196h35.93164a127.91087 127.91087 0 0 1 -190.76392 10.09351l.09986-.114z"/><path d="m72 200a24 24 0 1 0 24-24 24.02718 24.02718 0 0 0 -24 24zm32 0a8 8 0 1 1 -8-8 8.00917 8.00917 0 0 1 8 8z"/><path d="m328 211.313v-107.313h-16v100.687l-45.657 45.656 11.314 11.314z"/><path d="m184 312h-24v-16h-16v16h-64v-16h-16v16h-24a24.0275 24.0275 0 0 0 -24 24v136a24.0275 24.0275 0 0 0 24 24h144a24.0275 24.0275 0 0 0 24-24v-136a24.0275 24.0275 0 0 0 -24-24zm8 160a8.00917 8.00917 0 0 1 -8 8h-144a8.00917 8.00917 0 0 1 -8-8v-104h160zm0-120h-160v-16a8.00917 8.00917 0 0 1 8-8h24v8h16v-8h64v8h16v-8h24a8.00917 8.00917 0 0 1 8 8z"/><path d="m56 384h16v16h-16z"/><path d="m88 384h16v16h-16z"/><path d="m120 384h16v16h-16z"/><path d="m152 384h16v16h-16z"/><path d="m56 416h16v16h-16z"/><path d="m88 416h16v16h-16z"/><path d="m120 416h16v16h-16z"/><path d="m152 416h16v16h-16z"/><path d="m56 448h16v16h-16z"/><path d="m88 448h16v16h-16z"/><path d="m120 448h16v16h-16z"/><path d="m152 448h16v16h-16z"/><path d="m496.90332 283.13281-14.72266-6.26562a176.10741 176.10741 0 0 1 -253.99414 81.21826l-8.373 13.63379a192.10715 192.10715 0 0 0 277.08984-88.58643z"/><path d="m409.7334 413.30518a224.67105 224.67105 0 0 1 -182.41992-1.31788l-6.627 14.5625a239.82293 239.82293 0 0 0 273.10552-53.03125l-11.584-11.03613a223.26341 223.26341 0 0 1 -72.4746 50.82276z"/></g></svg>