<svg version="1.0" xmlns="http://www.w3.org/2000/svg"
    width="512.000000pt" height="512.000000pt" viewBox="0 0 512.000000 512.000000"
    preserveAspectRatio="xMidYMid meet">

    <g transform="translate(0.000000,512.000000) scale(0.100000,-0.100000)"
        fill="#000000" stroke="none">
        <path d="M1470 4835 c-806 -156 -1466 -284 -1467 -285 -2 0 -3 -895 -3 -1990
l0 -1990 22 -5 c13 -3 667 -129 1453 -280 787 -151 1440 -277 1453 -280 l22
-5 0 2560 c0 1408 -3 2560 -7 2559 -5 0 -667 -128 -1473 -284z m-167 -1595
c81 -170 157 -335 168 -367 10 -32 22 -65 25 -73 3 -9 21 26 44 85 20 55 105
226 188 380 l151 280 251 3 252 2 -20 -32 c-170 -279 -565 -936 -569 -945 -3
-8 493 -836 595 -991 l15 -22 -269 2 -268 3 -178 335 c-108 205 -182 355 -189
388 -7 28 -14 50 -17 48 -2 -3 -14 -34 -27 -69 -12 -36 -100 -209 -195 -386
l-172 -321 -264 0 c-145 0 -264 3 -264 6 0 4 280 446 596 940 l33 51 -265 454
c-146 250 -276 473 -290 497 l-25 42 274 0 273 0 147 -310z" />
        <path d="M3150 4235 l0 -295 300 0 300 0 0 -200 0 -200 -300 0 -300 0 0 -195
0 -195 295 0 295 0 0 -195 0 -195 -295 0 -295 0 0 -200 0 -200 295 0 295 0 0
-195 0 -195 -295 0 -295 0 0 -195 0 -195 295 0 295 0 0 -200 0 -200 -295 0
-295 0 0 -295 0 -295 915 0 c755 0 921 2 948 14 39 16 82 61 96 99 8 20 11
590 11 1858 0 1531 -2 1835 -14 1862 -16 39 -61 82 -99 96 -19 8 -321 11 -943
11 l-914 0 0 -295z m1578 -492 l-3 -198 -392 -3 -393 -2 0 200 0 200 395 0
395 0 -2 -197z m2 -788 l0 -195 -395 0 -395 0 0 195 0 195 395 0 395 0 0 -195z
m0 -790 l0 -195 -395 0 -395 0 0 195 0 195 395 0 395 0 0 -195z m-2 -787 l2
-198 -395 0 -395 0 0 200 0 200 393 -2 392 -3 3 -197z" />
    </g>
</svg>