<svg id="Layer_1" enable-background="new 0 0 66 66" height="512" viewBox="0 0 66 66" width="512" xmlns="http://www.w3.org/2000/svg"><g style="fill:none;stroke:#000;stroke-width:2;stroke-linecap:round;stroke-linejoin:round;stroke-miterlimit:10"><g><path d="m15.4 37.6 4.5 5.6 5.1-5.6"/><path d="m20.7 14.1h4.3"/><path d="m5.4 54.5v-36.4c0-2.2 1.8-4 4-4h6.8"/><path d="m44.7 14.1h11.9c2.2 0 4 1.8 4 4v36.4"/><path d="m64 54.5h-62c0 4.6 3.7 8.3 8.3 8.3h45.4c4.6 0 8.3-3.7 8.3-8.3z"/><path d="m26.2 54.5c0 2.3 1.9 4.2 4.2 4.2h5.2c2.3 0 4.2-1.9 4.2-4.2"/><path d="m15 28.6c0 2.7 2.2 4.8 4.8 4.8 2.7 0 4.8-2.2 4.8-4.8 0-2.7-2.2-4.8-4.8-4.8-2.6-.1-4.8 2.1-4.8 4.8z"/><path d="m26.5 54.5v-10.8l5.4 3.4c.7.4 1.5.7 2.3.7h4.7c1.2 0 2.2-1 2.2-2.2 0-1.2-1-2.3-2.2-2.3h-4.7l-6.5-4.9c-.8-.6-1.7-.9-2.7-.9h-11.2c-2 0-3.6 1.6-3.6 3.6v13.3h16.3z"/><path d="m15.1 44.8-.1 9.4"/><path d="m39 43.2 3.3-9.3"/><path d="m30.6 40.7v-15.7h25.3v20.3h-14.3"/><path d="m35.9 30.4h13.8"/><path d="m35.9 35.2h13.8"/><path d="m35.9 39.9h13.8"/><path d="m20.5 46.8h2.4"/><g><g><path d="m44.7 9.2v7.9c0 1.7-1.4 3.1-3.1 3.1h-13.3c-1.7 0-3.1-1.4-3.1-3.1v-7.7"/><path d="m50.3 7.7-15.3 4.1-16.5-4.1 16.5-4.5z"/><path d="m35 7.7h-16.5v5.2"/></g><path d="m21.3 15.7c0 1.5-1.2 2.8-2.8 2.8-1.5 0-2.8-1.2-2.8-2.8 0-1.5 1.2-2.8 2.8-2.8 1.5 0 2.8 1.3 2.8 2.8z"/></g></g><g><path d="m15.4 37.6 4.5 5.6 5.1-5.6"/><path d="m20.7 14.1h4.3"/><path d="m5.4 54.5v-36.4c0-2.2 1.8-4 4-4h6.8"/><path d="m44.7 14.1h11.9c2.2 0 4 1.8 4 4v36.4"/><path d="m64 54.5h-62c0 4.6 3.7 8.3 8.3 8.3h45.4c4.6 0 8.3-3.7 8.3-8.3z"/><path d="m26.2 54.5c0 2.3 1.9 4.2 4.2 4.2h5.2c2.3 0 4.2-1.9 4.2-4.2"/><path d="m15 28.6c0 2.7 2.2 4.8 4.8 4.8 2.7 0 4.8-2.2 4.8-4.8 0-2.7-2.2-4.8-4.8-4.8-2.6-.1-4.8 2.1-4.8 4.8z"/><path d="m26.5 54.5v-10.8l5.4 3.4c.7.4 1.5.7 2.3.7h4.7c1.2 0 2.2-1 2.2-2.2 0-1.2-1-2.3-2.2-2.3h-4.7l-6.5-4.9c-.8-.6-1.7-.9-2.7-.9h-11.2c-2 0-3.6 1.6-3.6 3.6v13.3h16.3z"/><path d="m15.1 44.8-.1 9.4"/><path d="m39 43.2 3.3-9.3"/><path d="m30.6 40.7v-15.7h25.3v20.3h-14.3"/><path d="m35.9 30.4h13.8"/><path d="m35.9 35.2h13.8"/><path d="m35.9 39.9h13.8"/><path d="m20.5 46.8h2.4"/><g><g><path d="m44.7 9.2v7.9c0 1.7-1.4 3.1-3.1 3.1h-13.3c-1.7 0-3.1-1.4-3.1-3.1v-7.7"/><path d="m50.3 7.7-15.3 4.1-16.5-4.1 16.5-4.5z"/><path d="m35 7.7h-16.5v5.2"/></g><path d="m21.3 15.7c0 1.5-1.2 2.8-2.8 2.8-1.5 0-2.8-1.2-2.8-2.8 0-1.5 1.2-2.8 2.8-2.8 1.5 0 2.8 1.3 2.8 2.8z"/></g></g></g></svg>