<svg id="Capa_1" enable-background="new 0 0 511.969 511.969" height="512" viewBox="0 0 511.969 511.969" width="512" xmlns="http://www.w3.org/2000/svg"><g><g id="Page-1_11_"><g id="_x30_12---Notification"><path id="Shape_55_" d="m250.012 9.986c-9.762-9.752-24.434-12.667-37.183-7.388-12.748 5.279-21.065 17.714-21.074 31.512v20.753c-74.61 16.157-127.888 82.108-128 158.447v52.992c-.016 21.008-1.913 41.973-5.666 62.643l-10.121 55.765c-21.818 3.746-37.133 23.576-35.242 45.632s20.358 38.99 42.495 38.967h120.235c4.141 24.625 25.461 42.659 50.432 42.659s46.291-18.033 50.432-42.659h120.235c22.137.023 40.604-16.911 42.495-38.967s-13.424-41.886-35.242-45.632l-10.129-55.808c-.853-4.369-1.527-9.02-2.185-13.798 47.415-4.613 87.557-36.954 102.154-82.301 14.596-45.347.856-95.032-34.966-126.437s-86.878-38.525-129.925-18.121c-19.923-16.427-43.494-27.839-68.736-33.28v-20.855c.02-9.055-3.584-17.742-10.009-24.124zm-41.19 24.124c0-9.426 7.641-17.067 17.067-17.067s17.067 7.641 17.067 17.067v18.057c-11.34-1.294-22.788-1.32-34.133-.077v-17.98zm17.067 460.8c-15.559-.023-29.142-10.542-33.058-25.6h66.116c-3.916 15.058-17.5 25.577-33.058 25.6zm196.266-68.267c0 14.138-11.462 25.6-25.6 25.6h-341.333c-14.138 0-25.6-11.462-25.6-25.6s11.462-25.6 25.6-25.6h341.333c14.139 0 25.6 11.462 25.6 25.6zm59.734-230.4c0 56.554-45.846 102.4-102.4 102.4s-102.4-45.846-102.4-102.4 45.846-102.4 102.4-102.4c56.528.061 102.338 45.872 102.4 102.4zm-221.867 0c.083 63.928 50.477 116.462 114.347 119.202.751 5.751 1.579 11.358 2.56 16.555l9.387 51.977h-320.854l9.387-51.977c3.95-21.68 5.949-43.67 5.973-65.707v-52.983c-.032-54.914 30.971-105.131 80.079-129.707s107.888-19.29 151.823 13.654c-32.931 22.182-52.684 59.281-52.702 98.986z"/><path id="Shape_54_" d="m146.785 112.736c-30.932 24.194-48.974 61.304-48.896 100.574 0 4.713 3.821 8.533 8.533 8.533 4.713 0 8.533-3.821 8.533-8.533-.061-34.035 15.581-66.195 42.394-87.159 2.396-1.887 3.604-4.909 3.168-7.928s-2.45-5.576-5.282-6.707c-2.833-1.132-6.054-.667-8.45 1.22z"/><path id="Shape_53_" d="m362.422 247.443c-4.713 0-8.533 3.821-8.533 8.533 0 4.713 3.821 8.533 8.533 8.533h34.133c4.713 0 8.533-3.821 8.533-8.533 0-4.713-3.82-8.533-8.533-8.533h-8.533v-110.933c-.001-3.451-2.08-6.562-5.268-7.882s-6.858-.591-9.298 1.849l-17.067 17.067c-3.234 3.348-3.188 8.671.104 11.962 3.292 3.292 8.614 3.338 11.962.104l2.5-2.5v90.334h-8.533z"/></g></g></g></svg>