<?xml version="1.0" encoding="UTF-8" standalone="no"?>
<!-- Created with Inkscape (http://www.inkscape.org/) -->

<svg
   version="1.1"
   id="svg9"
   xml:space="preserve"
   width="682.66669"
   height="682.66669"
   viewBox="0 0 682.66669 682.66669"
   xmlns="http://www.w3.org/2000/svg"
   xmlnsSvg="http://www.w3.org/2000/svg"><defs
     id="defs13"><clipPath
       clipPathUnits="userSpaceOnUse"
       id="clipPath23"><path
         d="M 0,512 H 512 V 0 H 0 Z"
         id="path21" /></clipPath></defs><g
     id="g15"
     transform="matrix(1.3333333,0,0,-1.3333333,0,682.66667)"><g
       id="g17"><g
         id="g19"
         clip-path="url(#clipPath23)"><g
           id="g25"
           transform="translate(379.8477,178.0518)"><path
             d="M 0,0 C -21.215,-0.875 -49.299,-3.903 -75.648,-12.611"
             style="fill:none;stroke:#000000;stroke-width:15;stroke-linecap:round;stroke-linejoin:round;stroke-miterlimit:10;stroke-dasharray:none;stroke-opacity:1"
             id="path27" /></g><g
           id="g29"
           transform="translate(177.4316,428.856)"><path
             d="m 0,0 v -9.385 c 0,-4.97 3.145,-9.395 7.838,-11.029 l 12.611,-4.391 c 4.407,-1.535 9.011,1.742 9.004,6.409 L 29.425,5.462 c -0.002,0.383 0.007,0.764 0.025,1.142 0.707,14.492 18.919,20.502 28.593,9.689 11.629,-13 35.514,-32.807 68.319,-24.88 3.728,0.9 7.589,-0.833 9.301,-4.265 l 0.004,-0.007 c 3.405,-6.83 11.356,-10.066 18.564,-7.556 4.693,1.635 7.837,6.06 7.837,11.029 v 44.658 c 0,8.527 -6.839,15.478 -15.364,15.617 -4.996,0.081 -9.024,4.112 -9.102,9.108 -0.136,8.681 -7.212,15.647 -15.894,15.647 H 51.196 C 26.542,75.644 5.959,58.218 1.091,35.012"
             style="fill:none;stroke:#000000;stroke-width:15;stroke-linecap:round;stroke-linejoin:round;stroke-miterlimit:10;stroke-dasharray:none;stroke-opacity:1"
             id="path31" /></g><g
           id="g33"
           transform="translate(178.5488,414.5024)"><path
             d="m 0,0 c -3.741,-3.1 -6.123,-7.782 -6.119,-13.021 l 0.011,-15.314 c 0.007,-9.326 7.571,-16.881 16.897,-16.877 l 4.336,0.002 c 0.438,-17.25 7.669,-33.824 20.655,-45.046 10.455,-9.034 25.13,-16.896 44.473,-17.032 19.342,0.301 33.952,8.288 44.33,17.412 12.893,11.332 19.985,27.967 20.279,45.22 l 4.442,0.018 c 6.486,0.028 11.721,5.372 11.694,11.937 l -0.055,25.32 c -0.009,2.271 -0.659,4.383 -1.758,6.183"
             style="fill:none;stroke:#000000;stroke-width:15;stroke-linecap:round;stroke-linejoin:round;stroke-miterlimit:10;stroke-dasharray:none;stroke-opacity:1"
             id="path35" /></g><g
           id="g37"
           transform="translate(224.0312,317.1445)"><path
             d="M 0,0 V -7.519 C 0,-17.39 -5.196,-26.225 -13.212,-31.178"
             style="fill:none;stroke:#000000;stroke-width:15;stroke-linecap:round;stroke-linejoin:round;stroke-miterlimit:10;stroke-dasharray:none;stroke-opacity:1"
             id="path39" /></g><g
           id="g41"
           transform="translate(304.4868,284.2129)"><path
             d="m 0,0 c -9.885,4.38 -16.541,14.231 -16.541,25.413 v 4.691"
             style="fill:none;stroke:#000000;stroke-width:15;stroke-linecap:round;stroke-linejoin:round;stroke-miterlimit:10;stroke-dasharray:none;stroke-opacity:1"
             id="path43" /></g><g
           id="g45"
           transform="translate(364.1001,261.7773)"><path
             d="m 0,0 c -12.297,8.891 -26.637,15.261 -42.337,18.282 -1.751,0.338 -6.285,1.245 -11.484,2.292 -2.032,0.409 -3.965,1.044 -5.792,1.862 -10.806,-9.246 -25.821,-17.201 -45.554,-17.508 -20.243,0.142 -35.602,8.37 -46.543,17.825 -0.539,0.465 -1.052,0.954 -1.571,1.436 -2.743,-1.696 -5.808,-2.948 -9.121,-3.615 -5.199,-1.047 -9.733,-1.954 -11.485,-2.292 C -189.586,15.261 -203.926,8.891 -216.224,0"
             style="fill:none;stroke:#000000;stroke-width:15;stroke-linecap:round;stroke-linejoin:round;stroke-miterlimit:10;stroke-dasharray:none;stroke-opacity:1"
             id="path47" /></g><g
           id="g49"
           transform="translate(243.4673,208.0708)"><path
             d="m 0,0 c -1.444,0.918 -2.914,1.802 -4.401,2.664 v -198.618 c 0.057,-0.032 0.117,-0.063 0.174,-0.096 10.37,-6.028 23.127,-6.027 33.497,0 0.058,0.033 0.116,0.065 0.173,0.098 V 2.664 C 27.957,1.802 26.486,0.918 25.042,0 17.381,-4.868 7.661,-4.868 0,0 Z"
             style="fill:none;stroke:#000000;stroke-width:15;stroke-linecap:round;stroke-linejoin:round;stroke-miterlimit:10;stroke-dasharray:none;stroke-opacity:1"
             id="path51" /></g><g
           id="g53"
           transform="translate(272.9106,12.1196)"><path
             d="m 0,0 c 44.75,25.919 107.773,26.585 130.886,25.833 4.897,-0.159 8.944,3.775 8.944,8.675 v 46.593"
             style="fill:none;stroke:#000000;stroke-width:15;stroke-linecap:round;stroke-linejoin:round;stroke-miterlimit:10;stroke-dasharray:none;stroke-opacity:1"
             id="path55" /></g><g
           id="g57"
           transform="translate(412.7407,214.2441)"><path
             d="M 0,0 V 10.322 C 0,16.89 -5.235,22.255 -11.801,22.408 -36.909,22.991 -96.81,21.377 -139.83,-3.555"
             style="fill:none;stroke:#000000;stroke-width:15;stroke-linecap:round;stroke-linejoin:round;stroke-miterlimit:10;stroke-dasharray:none;stroke-opacity:1"
             id="path59" /></g><g
           id="g61"
           transform="translate(412.7407,152.1699)"><path
             d="M 0,0 V 26.928"
             style="fill:none;stroke:#000000;stroke-width:15;stroke-linecap:round;stroke-linejoin:round;stroke-miterlimit:10;stroke-dasharray:none;stroke-opacity:1"
             id="path63" /></g><g
           id="g65"
           transform="translate(239.0664,210.6895)"><path
             d="m 0,0 c -43.021,24.932 -102.923,26.546 -128.03,25.963 -6.566,-0.153 -11.801,-5.519 -11.801,-12.086 v -71.932"
             style="fill:none;stroke:#000000;stroke-width:15;stroke-linecap:round;stroke-linejoin:round;stroke-miterlimit:10;stroke-dasharray:none;stroke-opacity:1"
             id="path67" /></g><g
           id="g69"
           transform="translate(99.2358,93.2212)"><path
             d="m 0,0 v -46.594 c 0,-4.9 4.047,-8.833 8.945,-8.674 23.112,0.752 86.136,0.085 130.886,-25.834"
             style="fill:none;stroke:#000000;stroke-width:15;stroke-linecap:round;stroke-linejoin:round;stroke-miterlimit:10;stroke-dasharray:none;stroke-opacity:1"
             id="path71" /></g><g
           id="g73"
           transform="translate(99.231,152.7261)"><path
             d="m 0,0 c 0,-5.226 4.237,-9.463 9.463,-9.463 h 6.213 c 9.445,0 17.101,-7.656 17.101,-17.101 v -22.275 c 0,-5.9 -4.783,-10.683 -10.684,-10.683 H 0.7 c -13.593,0 -24.613,11.019 -24.613,24.611 v 20.196 c 0,7.937 4.126,15.304 10.894,19.452 L 0,12.714"
             style="fill:none;stroke:#000000;stroke-width:15;stroke-linecap:round;stroke-linejoin:round;stroke-miterlimit:10;stroke-dasharray:none;stroke-opacity:1"
             id="path75" /></g><g
           id="g77"
           transform="translate(412.769,152.7261)"><path
             d="m 0,0 c 0,-5.226 -4.237,-9.463 -9.463,-9.463 h -6.213 c -9.445,0 -17.101,-7.656 -17.101,-17.101 v -22.275 c 0,-5.9 4.783,-10.683 10.684,-10.683 H -0.7 c 13.593,0 24.613,11.019 24.613,24.611 v 20.196 c 0,7.937 -4.126,15.304 -10.894,19.452 L 0,12.714"
             style="fill:none;stroke:#000000;stroke-width:15;stroke-linecap:round;stroke-linejoin:round;stroke-miterlimit:10;stroke-dasharray:none;stroke-opacity:1"
             id="path79" /></g><g
           id="g81"
           transform="translate(402.9385,236.4268)"><path
             d="m 0,0 v 14.559 c 0,6.156 -4.908,11.187 -11.063,11.33 -24.89,0.578 -86.279,-1.111 -126.832,-28.554 -5.475,-3.705 -12.635,-3.705 -18.11,0 -40.553,27.443 -101.942,29.132 -126.832,28.554 -6.155,-0.143 -11.063,-5.174 -11.063,-11.33 V 0"
             style="fill:none;stroke:#000000;stroke-width:15;stroke-linecap:round;stroke-linejoin:round;stroke-miterlimit:10;stroke-dasharray:none;stroke-opacity:1"
             id="path83" /></g></g></g></g></svg>
